<svg xmlns="http://www.w3.org/2000/svg" aria-hidden="true" style="position:absolute;width:0;height:0;overflow:hidden">
  <defs>
    <symbol id="finder" viewBox="0 0 34 32">
      <path d="M23.483 26.485 2.07 11.714C-.1 10.217.638 7.101 3.344 6.368L26.102.191a3.232 3.232 0 0 1 2.923.377c.422.29.769.678 1.011 1.13.242.452.373.954.383 1.467L29.07 24.111c-.16 2.486-3.416 3.87-5.586 2.373z"/>
      <path d="M16.691 30.13 4.076 5.46a3.448 3.448 0 0 1 .275-3.581A3.443 3.443 0 0 1 7.665.494l23.378 3.608a3.446 3.446 0 0 1 2.917 3.401c0 .544-.13 1.081-.377 1.566l-10.77 21.062a3.446 3.446 0 0 1-4.854 1.364 3.427 3.427 0 0 1-1.267-1.365z"/>
      <path d="M24.381 8.727 19.892 8l-5.511 1.57 2.2 4.515 5.151 3.73c.114.081.239.144.37.185l1.957-4.015.322-5.258z"/>
    </symbol>
    <symbol id="shells" viewBox="0 0 32 32">
      <path d="m.96 16.348.002-.16.003-.16.005-.16.006-.16.008-.16.01-.16.011-.16.013-.16.015-.16.016-.16.018-.16.02-.16.021-.16.023-.16.025-.159.026-.159.028-.159.03-.159.031-.159.033-.159.034-.158.036-.158.038-.158.039-.157.041-.157.043-.157.044-.156.046-.156.047-.156.049-.155.051-.155.052-.154.054-.154.056-.153.057-.153.059-.152.06-.152.062-.151.063-.151.065-.15.067-.15.068-.149.07-.148.071-.148.073-.147.074-.146.076-.146.077-.145.079-.144.08-.144.082-.143.083-.142.085-.142.086-.141.088-.14.089-.139.091-.138.092-.138.094-.137.095-.136.097-.135.098-.134.099-.133.101-.132.102-.131.104-.13.105-.129.106-.128.108-.127.109-.126.11-.125.112-.124.113-.123.114-.122.116-.121.117-.12.118-.119.119-.118.121-.117.122-.115.123-.114.124-.113.126-.112.127-.111.128-.11.129-.108.13-.107.131-.106.133-.105.134-.103.135-.102.136-.101.137-.1.138-.098.139-.097.14-.096.141-.094.142-.093.143-.092.144-.09.145-.089.146-.087.147-.086.148-.085.149-.083.15-.082.151-.08.152-.079.152-.077.153-.076.154-.075.155-.073.156-.072.157-.07.157-.069.158-.067.159-.066.16-.064.16-.062.161-.061.162-.059.162-.058.163-.056.164-.055.164-.053.165-.051.165-.05.166-.048.166-.047.167-.045.168-.043.168-.042.169-.04.169-.038.17-.037.17-.035.171-.034.171-.032.171-.03.172-.029.172-.027.172-.025.173-.024.173-.022.173-.02.174-.018.174-.017.174-.015.174-.013.174-.012.938-.054.053 4.519h.161l.13.001.13.002.13.004.13.005.13.006.13.007.13.009.13.01.13.011.13.013.13.014.129.015.129.016.129.018.129.019.129.02.129.022.129.023.128.024.128.025.128.027.128.028.128.029.127.03.127.032.127.033.127.034.126.035.126.037.126.038.125.039.125.04.125.042.124.043.124.044.124.045.123.047.123.048.122.049.122.05.122.052.121.053.121.054.12.055.12.056.119.058.119.059.118.06.117.061.117.062.116.064.116.065.115.066.114.067.114.068.113.069.113.071.112.072.111.073.11.074.11.075.109.076.108.077.108.078.107.08.106.081.105.082.105.083.104.084.103.085.102.086.101.087.1.088.099.089.099.09.098.091.097.092.096.093.095.094.094.095.093.096.092.097.091.098.09.099.089.1.088.101.087.102.086.103.085.103.084.104.083.105.082.106.081.107.08.108.079.109.078.11.077.11.076.111.075.112.074.113.073.114.071.114.07.115.069.116.068.117.067.117.066.118.064.119.063.119.062.12.061.121.06.121.058.122.057.123.056.123.055.124.054.124.052.125.051.126.05.126.049.127.047.127.046.128.045.128.043.129.042.129.041.13.039.13.038.131.037.131.035.132.034.132.033.132.032.133.03.133.029.133.027.134.026.134.025.134.023.135.022.135.021.135.019.136.018.136.016.136.015.136.014.137.012.137.011.137.009.137.008.137.007.137.005.137.004.137.003.138.001.138v.138l-.002.138-.003.138-.005.138-.006.138-.007.138-.009.138-.01.138-.012.138-.013.138-.015.138-.016.138-.017.138-.019.137-.02.137-.022.137-.023.137-.024.137-.026.137-.027.137-.029.136-.03.136-.032.136-.033.136-.035.135-.036.135-.037.135-.039.135-.04.134-.041.134-.043.134-.044.133-.046.133-.047.133-.048.132-.05.132-.051.131-.052.131-.054.13-.055.13-.057.13-.058.129-.059.128-.061.128-.062.127-.063.127-.065.126-.066.126-.067.125-.069.125-.07.124-.071.123-.073.123-.074.122-.075.121-.076.12-.078.12-.079.119-.08.118-.081.118-.083.117-.084.116-.085.116-.086.115-.088.114-.089.113-.09.112-.091.111-.092.11-.094.11-.095.109-.096.108-.097.107-.098.106-.099.105-.1.104-.101.103-.103.102-.104.101-.105.101-.106.099-.107.099-.108.098-.109.096-.11.096-.111.095-.112.093-.113.092-.114.091-.115.09-.116.089-.117.088-.118.087-.119.086-.12.085-.121.084-.122.082-.123.081-.123.08-.124.079-.125.078-.126.076-.127.075-.128.074-.128.073-.13.072-.13.07-.131.069-.132.068-.133.067-.133.065-.134.064-.135.063-.135.061-.136.06-.137.059-.137.058-.138.056-.139.055-.139.053-.14.052-.14.051-.141.049-.142.048-.142.047-.143.045-.143.044-.144.043-.144.041-.145.04-.145.038-.146.037-.146.036-.147.034-.147.033-.147.031-.148.03-.148.029-.148.027-.149.026-.149.024-.149.023-.15.021-.15.02-.15.018-.151.017-.151.015-.151.014-.151.012-.151.011-.152.009-.152.008-.152.006-.152.005-.152.003-.152.002-.152.001-.152-.001-.152-.002-.153-.004-.152-.006-.153-.007-.152-.008-.152-.01-.153-.012-.152-.013-.152-.015-.152-.016-.152-.017-.152-.019-.152-.02-.152-.022-.152-.023-.151-.025-.151-.026-.151-.028-.151-.029-.151-.031-.15-.032-.15-.034-.15-.035-.149-.037-.149-.038-.149-.04-.149-.041-.148-.043-.148-.044-.147-.046-.147-.047-.147-.049-.146-.05-.146-.052-.145-.053-.145-.054-.144-.056-.144-.057-.143-.059-.143-.06-.142-.062-.142-.063-.141-.064-.14-.066-.14-.067-.139-.069-.138-.07-.138-.071-.137-.073-.136-.074-.136-.076-.135-.077-.134-.078-.134-.08-.133-.081-.132-.082-.131-.084-.13-.085-.13-.086-.129-.088-.128-.089-.127-.09-.126-.091-.125-.093-.124-.094-.123-.095-.123-.096-.122-.098-.121-.099-.12-.1-.119-.101-.118-.103-.117-.104-.116-.105-.115-.106-.114-.107-.113-.108-.112-.11-.11-.111-.109-.112-.108-.113-.107-.114-.106-.115-.105-.116-.104-.117-.103-.119-.101-.12-.1-.12-.099-.122-.098-.123-.097-.124-.095-.125-.094-.126-.093-.127-.092-.128-.09-.129-.089-.129-.088-.13-.086-.131-.085-.132-.084-.133-.082-.134-.081-.135-.08-.136-.078-.137-.077-.137-.076-.138-.074-.139-.073-.14-.071-.14-.07-.141-.069-.142-.067-.143-.066-.143-.064-.144-.063-.145-.061-.146-.06-.146-.058-.147-.057-.148-.056-.148-.054-.149-.053-.149-.051-.15-.05-.151-.048-.151-.046-.151-.045-.152-.043-.152-.042-.153-.04-.153-.039-.154-.037-.154-.036-.155-.034-.155-.032-.156-.031-.156-.029-.156-.028-.157-.026-.157-.024-.157-.023-.158-.021-.158-.02-.158-.018-.159-.016-.159-.015-.159-.013-.159-.012-.159-.01-.16-.008-.16L.971 17l-.005-.16-.003-.16-.002-.16v-.16zM16.463 4.614l-.037-3.08-.035.003-.159.017-.159.018-.159.02-.158.022-.158.023-.158.025-.157.026-.157.028-.156.029-.156.031-.155.032-.156.034-.155.035-.155.037-.154.038-.153.04-.153.041-.152.043-.152.044-.152.046-.151.047-.15.049-.15.05-.149.051-.149.053-.148.054-.148.056-.147.057-.146.058-.146.06-.145.061-.144.063-.143.064-.143.065-.142.067-.141.068-.14.069-.139.071-.139.072-.138.074-.137.075-.136.076-.135.077-.134.079-.134.08-.133.081-.132.082-.131.084-.13.085-.129.086-.128.087-.127.089-.126.09-.125.091-.124.092-.123.093-.122.094-.121.096-.12.097-.119.098-.118.099-.117.1-.116.101-.115.102-.114.103-.113.105-.111.105-.11.107-.109.108-.108.109-.107.11-.105.11-.104.111-.103.113-.102.113-.101.114-.1.115-.098.116-.097.117-.096.118-.095.119-.093.12-.092.121-.091.121-.089.122-.088.123-.087.124-.085.125-.084.125-.083.126-.081.127-.08.128-.079.128-.077.129-.076.13-.075.131-.073.131-.072.132-.071.132-.069.133-.068.134-.066.134-.065.135-.064.135-.062.136-.061.136-.059.137-.058.137-.056.138-.055.139-.054.139-.052.139-.051.14-.049.14-.048.141-.046.141-.045.141-.043.142-.042.142-.04.142-.039.143-.037.143-.036.143-.034.144-.033.144-.031.144-.03.144-.028.145-.027.145-.025.145-.024.145-.022.145-.021.145-.019.146-.018.146-.016.146-.015.146-.013.146-.012.146-.01.146-.009.146-.007.146-.006.146-.004.146-.003.146-.001.146v.146l.002.146.003.146.005.146.006.145.008.145.009.145.01.145.012.145.013.145.015.145.016.144.018.144.019.144.021.143.022.143.024.143.025.142.027.142.028.142.03.142.031.141.032.141.034.14.035.14.037.14.038.139.039.139.041.138.042.138.044.137.045.137.046.136.048.136.049.135.05.135.052.134.053.133.054.133.056.132.057.132.058.131.06.13.061.13.062.129.064.128.065.128.066.127.067.126.069.125.07.125.071.124.072.123.074.122.075.122.076.121.077.12.078.119.08.118.081.118.082.117.083.116.084.115.085.114.087.113.088.112.089.111.09.11.091.11.092.108.093.108.094.107.095.106.096.105.097.104.098.103.099.102.1.101.101.099.102.099.103.097.104.096.105.095.106.094.107.093.108.092.109.091.109.09.11.089.111.087.112.086.113.085.114.084.114.083.115.082.116.081.117.079.117.078.118.077.119.076.12.075.12.073.121.072.122.071.122.07.123.068.124.067.124.066.125.065.125.064.126.062.127.061.127.06.128.058.128.057.129.056.129.054.13.053.13.052.131.051.131.049.131.048.132.047.132.045.133.044.133.043.133.041.134.04.134.039.134.037.135.036.135.035.135.033.136.032.136.031.136.029.136.028.136.027.137.025.137.024.137.023.137.021.137.02.137.018.137.017.138.016.138.014.138.013.138.012.138.01.138.009.138.008.138.006.138.005.138.004.138.002.138.001h.138l.138-.002.137-.003.137-.005.137-.006.137-.007.137-.009.137-.01.137-.011.136-.013.136-.014.136-.015.136-.017.136-.018.135-.019.135-.02.135-.022.134-.023.134-.024.134-.026.133-.027.133-.028.133-.029.132-.031.132-.032.131-.033.131-.035.131-.036.13-.037.13-.038.129-.04.129-.041.128-.042.128-.043.127-.045.127-.046.126-.047.126-.048.125-.049.124-.051.124-.052.123-.053.123-.054.122-.055.121-.057.121-.058.12-.059.119-.06.119-.061.118-.062.117-.063.116-.064.116-.066.115-.067.114-.068.113-.069.113-.07.112-.071.111-.072.11-.073.11-.074.109-.075.108-.076.107-.077.106-.078.105-.079.104-.08.104-.081.103-.082.102-.083.101-.084.1-.085.099-.086.098-.087.097-.088.096-.089.095-.09.094-.09.093-.091.092-.092.091-.093.09-.094.089-.095.088-.095.087-.096.086-.097.085-.098.084-.099.083-.099.082-.1.081-.101.08-.102.079-.102.078-.103.076-.104.075-.104.075-.105.073-.106.072-.107.071-.107.07-.108.069-.108.067-.109.066-.11.065-.11.064-.11.063-.111.062-.112.06-.112.059-.113.058-.113.057-.113.056-.114.054-.115.053-.115.052-.116.051-.116.05-.116.048-.117.047-.117.046-.117.045-.118.043-.118.042-.119.041-.119.04-.12.038-.12.037-.12.036-.12.035-.121.033-.121.032-.121.031-.121.03-.122.028-.122.027-.122.026-.122.024-.122.023-.123.022-.122.021-.123.02-.123.018-.123.017-.123.016-.123.014-.124.013-.123.012-.124.01-.123.009-.124.008-.123.007-.124.006-.124.004-.123.003-.123.002-.124v-.123l-.001-.123-.002-.123-.003-.123-.005-.123-.006-.123-.007-.123-.009-.123-.01-.122-.011-.122-.012-.122-.013-.122-.015-.122-.016-.122-.017-.121-.018-.121-.02-.121-.021-.12-.022-.12-.023-.12-.024-.12-.026-.12-.027-.119-.028-.119-.029-.118-.031-.118-.032-.117-.033-.117-.034-.117-.035-.116-.036-.116-.038-.116-.039-.115-.04-.115-.041-.114-.042-.114-.043-.113-.044-.113-.046-.112-.047-.111-.048-.111-.049-.111-.05-.11-.051-.11-.052-.109-.053-.108-.055-.108-.055-.107-.056-.107-.058-.106-.058-.105-.06-.105-.061-.104-.062-.103-.063-.102-.064-.102-.065-.101-.066-.101-.067-.1-.068-.099-.069-.099-.07-.098-.071-.097-.072-.096-.073-.095-.073-.095-.074-.094-.075-.093-.076-.092-.077-.091-.078-.091-.079-.09-.08-.089-.081-.088-.082-.087-.082-.086-.083-.086-.084-.085-.085-.084-.085-.083-.087-.082-.087-.081-.088-.08-.089-.079-.089-.078-.09-.077-.091-.077-.092-.076-.092-.075-.093-.074-.094-.073-.094-.072-.095-.071-.096-.07-.096-.069-.097-.068-.098-.067-.099-.066-.099-.065-.1-.064-.1-.063-.101-.062-.101-.061-.102-.06-.102-.059-.103-.058-.103-.056-.104-.056-.104-.054-.105-.053-.105-.052-.106-.051-.106-.05-.107-.049-.107-.048-.108-.047-.111-.047-.105-.043-.109-.044-.109-.042-.11-.042-.11-.04-.11-.039-.11-.038-.111-.037-.111-.036-.111-.035-.112-.034-.112-.033-.112-.032-.113-.03-.113-.029-.113-.028-.113-.027-.113-.026-.114-.025-.114-.024-.114-.023-.114-.021-.114-.02-.114-.019-.115-.018-.114-.017-.115-.016-.115-.015-.115-.013-.115-.012-.115-.011-.115-.01-.115-.009-.115-.008-.115-.007-.115-.005-.115-.004-.115-.003-.115-.002-.115-.001h-.138l.036 3.058H18.12l.084.001.084.002.084.003.084.004.084.005.084.005.084.006.084.007.084.008.084.009.084.01.084.01.084.011.084.012.084.013.084.014.084.015.084.016.084.016.084.017.084.018.083.019.083.02.083.021.083.021.083.022.083.023.082.024.082.025.082.026.082.026.082.027.081.028.081.029.081.03.081.03.08.031.08.032.08.033.08.034.079.035.079.035.079.036.078.037.078.038.078.039.077.039.077.04.077.041.076.042.076.043.076.043.075.044.075.045.074.046.074.046.074.047.073.048.073.049.072.05.072.05.071.051.071.052.07.053.07.053.069.054.069.055.068.055.068.056.067.057.067.058.066.058.066.059.065.06.064.06.064.061.064.062.063.062.062.063.062.064.061.064.06.065.06.066.059.066.059.067.058.068.057.068.057.069.056.069.055.07.055.071.054.071.053.072.052.072.052.073.051.073.05.074.05.075.049.075.048.076.047.076.047.077.046.077.045.078.044.078.044.079.043.079.042.08.041.08.041.081.04.081.039.082.038.082.037.083.036.083.036.083.035.084.034.084.033.085.032.085.031.085.03.086.03.086.029.086.028.087.027.087.026.088.025.088.024.088.023.088.023.089.022.089.021.089.02.089.019.09.018.09.017.09.016.091.015.091.014.091.014.091.012.091.012.091.011.092.01.092.009.092.008.092.007.092.006.093.005.093.004.093.003.093.002.093.001.093v.093l-.001.093-.002.093-.003.093-.004.093-.005.093-.006.093-.006.093-.008.093-.008.093-.009.093-.01.093-.011.093-.012.093-.013.093-.014.093-.015.093-.016.093-.017.093-.018.093-.019.093-.02.093-.021.092-.022.092-.023.092-.024.092-.025.092-.026.092-.027.091-.028.091-.029.091-.03.091-.031.09-.032.09-.032.09-.034.09-.035.09-.035.089-.036.089-.037.089-.038.088-.039.088-.04.088-.041.087-.042.087-.043.087-.044.086-.045.086-.046.085-.047.085-.047.085-.048.084-.049.084-.05.084-.051.083-.052.083-.053.082-.054.082-.055.081-.055.081-.056.08-.057.08-.058.079-.059.079-.06.078-.061.078-.061.077-.062.077-.063.076-.064.076-.065.075-.066.074-.066.074-.067.073-.068.072-.069.072-.07.071-.07.071-.071.07-.072.069-.073.069-.073.068-.074.067-.075.067-.076.066-.076.065-.077.064-.078.064-.078.063-.079.062-.08.062-.081.061-.081.06-.082.059-.083.059-.083.058-.084.057-.085.056-.085.055-.086.055-.086.054-.087.053-.088.052-.088.051-.089.05-.089.05-.09.049-.091.048-.091.047-.092.046-.092.045-.093.044-.093.044-.094.043-.094.042-.095.041-.095.04-.096.039-.096.038-.097.037-.097.036-.098.035-.098.035-.098.034-.099.033-.099.032-.099.031-.1.03-.1.029-.101.028-.101.027-.101.026-.102.025-.102.024-.102.023-.103.022-.103.021-.103.02-.103.019-.104.018-.104.017-.104.016-.105.015-.105.014-.105.013-.105.012-.105.011-.105.01-.106.009-.106.008-.106.007-.106.006-.106.005-.106.003-.106.003-.106.001h-.107l-.107-.001-.107-.002-.107-.003-.107-.004-.107-.005-.107-.006-.107-.007-.107-.008-.107-.009-.107-.01-.107-.011-.107-.012-.107-.013-.107-.014-.107-.015-.106-.017-.106-.017-.106-.019-.106-.02-.106-.021-.106-.022-.106-.023-.105-.024-.105-.025-.105-.026-.105-.027-.105-.028-.104-.029-.104-.03-.104-.031-.104-.032-.104-.033-.103-.034-.103-.035-.102-.036-.102-.038-.102-.038-.102-.04-.101-.04-.101-.042-.101-.043-.1-.044-.1-.045-.099-.046-.099-.047-.098-.048-.098-.049-.098-.05-.097-.05-.097-.052-.096-.053-.096-.053-.095-.055-.095-.055-.094-.056-.094-.057-.093-.058-.093-.059-.092-.06-.092-.061-.091-.062-.091-.063-.09-.064-.089-.065-.089-.066-.088-.067-.087-.068-.087-.069-.086-.07-.085-.07-.085-.071-.084-.072-.083-.073-.083-.074-.082-.075-.081-.076-.081-.076-.08-.077-.079-.078-.078-.079-.078-.08-.077-.081-.076-.081-.075-.082-.074-.083-.074-.084-.073-.084-.072-.085-.071-.086-.07-.087-.069-.087-.069-.088-.068-.089-.067-.09-.066-.09-.065-.091-.064-.092-.063-.093-.062-.093-.061-.094-.06-.095-.06-.095-.059-.096-.058-.096-.057-.097-.056-.098-.055-.098-.054-.099-.053-.099-.052-.1-.051-.101-.05-.101-.049-.102-.048-.102-.047-.103-.046-.103-.045-.104-.044-.104-.043-.105-.042-.105-.04-.106-.039-.106-.038-.107-.037-.107-.036-.108-.035-.108-.034-.108-.033-.109-.032-.109-.031-.109-.03-.11-.029-.11-.027-.11-.026-.111-.025-.111-.024-.112-.023-.112-.022-.112-.021-.112-.019-.113-.018-.113-.017-.113-.016-.113-.015-.114-.014-.114-.013-.114-.011-.114-.01-.114-.009-.115-.008-.115-.007-.115-.006-.115-.004-.115-.003-.115-.002-.115-.001-.115v-.115l.002-.116.003-.116.004-.116.005-.116.006-.116.008-.116.009-.116.01-.116.011-.116.012-.116.013-.116.015-.115.016-.115.017-.115.018-.115.019-.115.021-.115.022-.115.023-.115.024-.114.025-.114.027-.114.028-.114.029-.114.03-.114.031-.113.032-.113.034-.113.035-.113.036-.112.037-.112.038-.112.04-.111.041-.111.042-.111.043-.11.044-.11.045-.11.046-.109.048-.109.049-.108.05-.108.051-.107.052-.107.053-.107.054-.106.056-.106.057-.105.058-.105.059-.104.06-.104.061-.103.062-.103.063-.102.064-.101.065-.101.067-.1.068-.1.069-.099.07-.098.071-.098.072-.097.073-.097.074-.096.075-.095.076-.094.077-.094.078-.093.079-.092.08-.092.081-.091.082-.09.083-.089.084-.089.085-.088.086-.087.087-.086.088-.086.089-.085.089-.084.09-.083.091-.082.092-.081.093-.08.094-.08.095-.079.096-.078.096-.077.097-.076.098-.075.099-.074.1-.073.101-.072.101-.071.102-.07.103-.069.104-.068.104-.068.105-.066.106-.066.107-.064.107-.063.108-.062.109-.061.11-.06.11-.059.111-.058.111-.057.112-.056.113-.055.113-.054.114-.053.115-.052.115-.051.116-.05.116-.049.117-.047.117-.046.118-.045.119-.044.119-.043.12-.042.12-.041.121-.039.121-.038.121-.037.122-.036.122-.035.123-.034.123-.032.124-.031.124-.03.124-.029.125-.028.125-.026.125-.025.126-.024.126-.023.126-.021.127-.02.127-.019.127-.018.127-.017.047-.006zm.054 4.535-.037-3.091-.104.015-.112.017-.112.018-.112.019-.112.02-.111.021-.111.022-.111.023-.11.024-.11.025-.11.027-.109.028-.109.029-.105.029-.112.032-.108.032-.107.033-.107.034-.107.035-.106.036-.106.037-.105.038-.105.039-.104.04-.104.041-.103.042-.103.043-.102.044-.102.045-.101.046-.101.047-.1.048-.1.049-.099.05-.098.05-.098.052-.097.052-.097.054-.096.054-.095.055-.095.056-.094.057-.094.058-.093.059-.092.06-.091.06-.091.061-.09.062-.09.063-.088.064-.088.065-.087.065-.087.066-.086.067-.085.068-.084.069-.084.069-.083.07-.082.071-.081.072-.081.072-.08.073-.079.074-.078.075-.077.075-.076.076-.076.077-.075.077-.074.078-.073.079-.072.079-.071.08-.07.081-.069.081-.069.082-.068.083-.067.083-.066.084-.065.085-.064.085-.063.085-.062.086-.061.087-.06.087-.059.088-.059.088-.058.089-.057.089-.056.09-.055.09-.054.091-.053.091-.052.092-.051.092-.05.092-.049.093-.048.093-.047.094-.046.094-.045.094-.044.095-.043.095-.042.095-.041.096-.04.096-.039.097-.038.097-.037.097-.036.097-.035.098-.034.098-.033.098-.032.098-.031.099-.03.099-.029.099-.027.099-.026.1-.025.1-.024.1-.023.1-.022.1-.021.1-.02.101-.019.101-.018.101-.017.101-.016.101-.015.101-.014.101-.013.101-.012.101-.011.101-.01.101-.009.101-.008.101-.007.101-.006.101-.005.101-.003.101-.002.101-.001.101v.101l.001.101.002.101.003.101.004.101.005.101.006.101.007.1.008.1.009.1.01.1.011.1.012.099.013.099.014.099.015.099.016.099.017.099.018.098.019.098.02.098.021.097.022.097.023.097.024.097.025.096.026.096.027.096.028.095.029.095.03.095.031.094.032.094.033.093.033.093.034.093.035.092.036.092.037.091.038.091.039.09.04.09.041.09.042.089.043.089.043.088.044.088.045.087.046.087.047.086.048.086.049.085.049.084.05.084.051.083.052.083.053.082.054.082.054.081.055.081.056.08.057.079.057.079.058.078.059.077.06.077.06.076.061.075.062.075.063.074.063.073.064.073.065.072.065.071.066.071.067.07.067.069.068.069.069.068.069.067.07.066.07.066.071.065.072.064.072.063.073.063.074.062.074.061.075.06.075.059.076.059.076.058.077.057.077.056.078.055.079.055.079.054.079.053.08.052.08.052.081.051.081.05.082.049.082.048.083.047.083.046.083.046.084.045.084.044.085.043.085.042.085.041.086.04.086.04.086.039.087.038.087.037.087.036.088.035.088.034.088.033.088.032.089.032.089.03.089.03.089.029.09.028.09.027.09.026.09.025.091.024.091.023.091.022.091.021.091.021.091.02.091.019.091.018.092.017.092.016.092.015.092.014.092.013.092.012.092.012.092.011.092.01.092.009.092.008.092.007.092.006.092.005.092.004.092.003.092.002.092.002h.184l.092-.001.092-.002.092-.003.091-.004.091-.005.091-.006.091-.007.091-.008.091-.008.091-.009.09-.01.09-.011.09-.012.09-.013.09-.014.09-.015.089-.015.089-.016.089-.017.088-.018.088-.019.088-.02.088-.02.087-.021.087-.022.087-.023.087-.024.086-.025.086-.026.085-.026.085-.027.085-.028.084-.029.084-.03.084-.03.083-.031.083-.032.082-.033.082-.034.082-.034.081-.035.081-.036.08-.037.08-.037.079-.038.079-.039.079-.04.078-.04.078-.041.077-.042.077-.043.076-.043.076-.044.075-.045.075-.045.074-.046.074-.047.073-.047.072-.048.072-.049.071-.049.071-.05.07-.051.07-.051.069-.052.068-.053.067-.053.067-.054.067-.055.066-.055.066-.056.064-.056.064-.057.064-.058.063-.058.062-.059.061-.059.061-.06.06-.06.059-.061.059-.061.058-.062.057-.062.057-.063.056-.063.055-.064.055-.064.054-.065.053-.066.052-.066.052-.066.051-.067.05-.067.049-.067.049-.068.048-.069.047-.069.047-.069.046-.07.045-.07.044-.07.043-.071.043-.071.042-.072.041-.072.04-.072.04-.073.039-.073.038-.073.037-.074.036-.073.036-.074.035-.074.034-.075.033-.075.033-.075.032-.075.031-.076.03-.076.029-.076.028-.076.028-.077.027-.077.026-.077.025-.077.024-.077.024-.077.023-.077.022-.078.021-.078.02-.078.02-.078.019-.078.018-.078.017-.078.016-.078.015-.078.015-.079.014-.079.013-.079.012-.079.011-.079.01-.079.01-.079.009-.079.008-.079.007-.079.006-.079.005-.079.005-.079.004-.079.003-.079.002-.079.001-.079.001-.079v-.079l-.001-.079-.002-.078-.003-.078-.003-.078-.004-.078-.005-.078-.006-.078-.007-.078-.007-.078-.008-.077-.009-.078-.01-.077-.011-.077-.011-.077-.012-.077-.013-.076-.014-.076-.014-.076-.015-.076-.016-.076-.017-.075-.018-.075-.018-.075-.019-.074-.02-.075-.02-.074-.021-.074-.022-.073-.023-.073-.023-.073-.024-.072-.025-.072-.026-.072-.026-.072-.027-.071-.028-.071-.029-.071-.029-.07-.03-.07-.031-.07-.031-.069-.032-.069-.033-.069-.033-.068-.034-.068-.035-.068-.035-.067-.036-.066-.037-.066-.037-.066-.038-.065-.038-.065-.039-.065-.04-.064-.041-.064-.041-.063-.042-.063-.042-.062-.043-.062-.043-.061-.044-.06-.045-.06-.045-.059-.046-.059-.046-.059-.047-.058-.047-.058-.048-.057-.048-.057-.049-.056-.05-.056-.05-.055-.051-.054-.051-.054-.052-.053-.052-.053-.053-.052-.053-.051-.053-.051-.054-.05-.055-.05-.055-.049-.055-.049-.056-.048-.056-.047-.057-.047-.057-.046-.057-.046-.058-.045-.058-.044-.058-.044-.059-.043-.059-.043-.06-.042-.06-.041-.06-.04-.061-.04-.061-.039-.062-.039-.062-.038-.062-.037-.063-.037-.063-.036-.063-.035-.064-.035-.064-.034-.064-.034-.064-.033-.065-.032-.065-.031-.065-.031-.065-.03-.066-.03-.066-.029-.066-.028-.066-.027-.067-.027-.067-.026-.067-.025-.067-.025-.067-.024-.067-.023-.068-.023-.068-.022-.068-.021-.068-.021-.069-.02-.068-.019-.068-.018-.069-.018-.069-.017-.069-.016-.069-.016-.069-.015-.069-.014-.069-.014-.069-.013-.069-.012-.069-.011-.07-.011-.069-.01-.07-.009-.069-.009-.069-.008-.07-.007-.069-.007-.07-.006-.069-.005-.07-.005-.069-.004-.069-.003-.07-.002-.069-.002-.069-.001h-.116l.036 3.02h.021l.04.001.04.001.04.001.04.002.04.002.04.003.04.003.04.003.04.004.04.004.04.005.04.005.04.005.04.006.04.006.04.007.04.007.04.008.04.008.04.009.04.009.04.009.04.01.04.01.04.011.04.011.04.011.04.012.04.012.04.013.04.013.04.014.039.014.039.014.039.015.039.015.039.016.039.016.039.017.039.017.039.018.038.018.038.018.038.019.038.019.038.02.038.02.038.02.038.021.037.021.037.022.037.022.037.023.037.023.036.023.036.024.036.024.036.025.036.025.035.025.035.026.035.026.035.027.034.027.034.027.034.028.034.028.034.028.033.029.033.029.033.03.032.03.032.03.032.031.032.031.031.031.031.032.031.032.03.033.03.033.03.033.03.034.029.034.029.034.029.035.028.035.028.035.028.036.027.036.027.036.027.037.026.037.026.037.026.038.025.038.025.038.025.039.024.039.024.039.023.04.023.04.023.04.022.04.022.041.021.041.021.041.021.041.02.042.02.042.019.042.019.043.018.043.018.043.018.043.017.044.017.044.016.044.016.044.015.044.015.045.015.045.014.045.014.045.013.046.013.046.012.046.012.046.011.046.011.047.01.047.01.047.009.047.009.047.009.047.008.047.008.047.007.048.006.048.006.048.006.048.005.048.005.048.004.049.003.049.003.049.002.049.002.049.002.049.001.049v.098l-.001.049-.001.049-.002.049-.002.049-.003.049-.003.049-.004.049-.004.05-.005.05-.005.05-.006.05-.006.05-.007.05-.007.05-.008.05-.009.05-.009.05-.01.05-.01.049-.011.049-.011.049-.012.049-.012.049-.013.049-.013.049-.014.049-.014.049-.015.049-.015.049-.016.049-.017.049-.017.049-.018.049-.018.048-.019.048-.019.048-.02.048-.02.048-.021.048-.021.048-.022.047-.022.047-.023.047-.023.047-.024.047-.024.047-.025.046-.026.046-.026.046-.027.046-.027.046-.027.045-.028.045-.029.045-.029.045-.03.044-.03.044-.031.044-.031.044-.032.044-.032.043-.033.043-.033.043-.034.043-.034.042-.035.042-.035.042-.035.041-.036.041-.036.041-.037.04-.037.04-.038.04-.038.04-.039.039-.039.039-.04.038-.04.038-.041.038-.041.037-.041.037-.042.037-.042.036-.043.036-.043.035-.044.035-.044.035-.044.034-.045.034-.045.033-.046.033-.046.032-.047.032-.047.032-.047.031-.048.031-.048.03-.048.03-.049.029-.049.029-.049.029-.05.028-.05.028-.051.027-.051.027-.051.026-.052.026-.052.025-.052.025-.053.024-.053.024-.053.023-.054.023-.054.022-.054.022-.054.021-.055.021-.055.02-.055.02-.055.019-.056.019-.056.018-.056.017-.057.017-.057.017-.057.016-.057.015-.058.015-.058.014-.058.014-.058.013-.058.013-.059.012-.059.011-.059.011-.059.01-.059.01-.059.009-.06.009-.06.008-.06.007-.06.007-.06.006-.06.006-.061.005-.061.005-.061.004-.061.003-.061.003-.061.002-.061.001-.061.001h-.122l-.061-.001-.062-.002-.061-.002-.062-.003-.062-.003-.062-.004-.062-.005-.062-.005-.062-.006-.062-.006-.062-.007-.062-.008-.062-.009-.062-.009-.062-.01-.062-.01-.062-.011-.062-.012-.062-.012-.062-.013-.061-.014-.061-.014-.061-.015-.061-.015-.061-.016-.061-.017-.061-.017-.061-.018-.061-.018-.06-.019-.06-.02-.06-.02-.06-.021-.06-.022-.06-.022-.059-.023-.059-.023-.059-.024-.059-.025-.059-.025-.059-.026-.058-.026-.058-.027-.058-.028-.058-.028-.058-.029-.057-.029-.057-.03-.057-.031-.056-.031-.056-.032-.056-.033-.056-.033-.056-.034-.055-.034-.055-.035-.055-.035-.054-.036-.054-.037-.053-.037-.053-.038-.053-.038-.053-.039-.052-.039-.052-.04-.052-.041-.051-.041-.051-.042-.05-.042-.05-.043-.05-.043-.049-.044-.049-.044-.048-.045-.048-.046-.048-.046-.047-.047-.047-.047-.046-.047-.046-.048-.045-.049-.045-.049-.044-.049-.044-.05-.043-.051-.043-.051-.043-.052-.042-.052-.041-.052-.041-.053-.041-.053-.04-.054-.039-.054-.039-.055-.039-.055-.038-.056-.037-.056-.037-.056-.036-.057-.036-.057-.035-.058-.035-.058-.034-.058-.033-.059-.033-.059-.032-.06-.032-.06-.031-.06-.031-.061-.03-.061-.029-.062-.029-.062-.028-.062-.027-.063-.027-.063-.026-.063-.026-.064-.025-.064-.024-.064-.024-.064-.023-.065-.022-.065-.022-.065-.021-.066-.02-.066-.02-.066-.019-.067-.018-.067-.018-.067-.017-.067-.016-.067-.016-.068-.015-.068-.014-.068-.014-.068-.013-.069-.012-.069-.011-.069-.011-.069-.01-.069-.009-.069-.009-.07-.008-.07-.007-.07-.007-.07-.006-.07-.005-.07-.004-.07-.004-.07-.003-.071-.002-.071-.001-.071-.001-.071v-.071l.001-.071.002-.071.002-.071.003-.071.004-.071.005-.071.005-.071.006-.071.007-.071.007-.071.008-.071.009-.071.01-.071.01-.071.011-.071.012-.071.012-.071.013-.071.014-.071.015-.071.016-.071.016-.071.017-.071.018-.07.019-.07.019-.07.02-.07.021-.07.022-.07.022-.07.023-.07.024-.069.024-.069.025-.069.026-.069.027-.069.027-.069.028-.068.029-.068.03-.068.03-.068.031-.067.032-.067.033-.067.033-.067.034-.066.035-.066.035-.066.036-.066.037-.065.038-.065.038-.064.039-.064.04-.064.04-.063.041-.063.042-.063.043-.063.043-.062.044-.062.045-.061.045-.061.046-.061.047-.06.047-.06.048-.059.049-.059.049-.059.05-.058.05-.058.051-.057.052-.057.052-.056.053-.056.054-.055.054-.055.055-.054.056-.054.056-.053.057-.053.057-.052.058-.052.059-.051.059-.051.06-.05.06-.05.061-.049.061-.049.062-.048.063-.047.063-.047.063-.046.064-.046.065-.045.065-.045.066-.044.066-.043.067-.043.067-.042.068-.041.068-.041.069-.04.069-.04.069-.039.07-.038.07-.038.071-.037.071-.036.072-.036.072-.035.073-.034.073-.034.073-.033.074-.032.074-.031.075-.031.075-.03.075-.029.076-.029.076-.028.076-.027.077-.026.077-.026.078-.025.078-.024.078-.023.078-.023.079-.022.079-.021.079-.02.08-.02.08-.019.08-.018.08-.017.081-.016.081-.016.041-.008zm.993 5.808-.922.22-.054-4.568-.044.01-.065.015-.065.016-.065.017-.065.017-.064.018-.064.019-.064.019-.064.02-.063.02-.063.021-.063.022-.063.022-.062.023-.062.023-.062.024-.061.024-.061.025-.061.026-.06.026-.06.027-.059.027-.059.028-.059.028-.059.029-.058.03-.058.03-.057.031-.057.031-.057.032-.056.032-.056.033-.056.033-.055.034-.055.034-.054.035-.054.035-.053.036-.053.036-.053.037-.052.037-.052.038-.051.038-.051.039-.05.039-.05.039-.049.04-.049.04-.048.041-.048.041-.047.042-.047.042-.046.043-.046.043-.045.043-.045.044-.044.044-.044.044-.043.045-.043.045-.043.046-.042.046-.041.046-.041.047-.04.047-.04.047-.039.047-.039.048-.038.048-.038.049-.037.049-.037.049-.036.05-.035.05-.035.05-.034.05-.034.051-.033.051-.033.051-.032.052-.031.052-.031.052-.03.052-.03.053-.029.053-.028.053-.028.053-.027.053-.027.054-.026.054-.026.054-.025.054-.024.054-.024.054-.023.055-.023.055-.022.055-.021.055-.021.055-.02.055-.02.056-.019.056-.018.056-.018.056-.017.056-.017.056-.016.056-.015.056-.015.056-.014.056-.014.056-.013.057-.012.057-.012.057-.011.057-.011.057-.01.057-.009.057-.009.057-.008.057-.008.057-.007.057-.006.057-.006.057-.005.057-.005.057-.004.057-.004.057-.003.057-.002.057-.002.057-.001.057-.001.056v.056l.001.056.001.056.002.056.002.056.003.056.004.056.004.056.005.056.005.056.006.055.006.055.007.055.008.055.008.055.008.055.009.055.01.055.01.054.011.054.011.054.012.054.012.053.013.053.014.053.014.053.014.052.015.053.016.052.016.052.017.052.017.051.018.052.018.051.019.051.019.051.02.05.02.05.021.05.021.049.022.049.022.049.023.049.023.048.023.048.024.048.024.047.025.047.025.047.026.046.026.046.027.046.027.045.028.045.028.045.028.044.029.044.029.044.03.044.03.043.03.043.031.042.031.042.032.042.032.041.032.041.033.041.033.04.033.04.034.039.034.039.034.038.035.038.035.038.036.038.036.037.036.037.037.036.037.036.037.035.038.035.038.034.038.034.039.034.039.033.039.033.039.032.04.032.04.031.04.031.04.03.041.03.041.03.041.029.041.029.042.028.042.028.042.027.042.027.043.027.043.026.043.026.043.025.043.025.043.024.044.024.044.023.044.023.044.022.044.022.044.021.045.021.045.02.045.02.045.02.045.019.045.018.046.018.046.017.046.017.046.017.046.016.046.015.046.015.046.015.046.014.046.014.046.013.047.013.047.012.047.012.047.011.047.011.047.01.047.01.047.009.047.009.047.008.047.008.047.007.047.007.047.006.047.006.047.006.047.005.047.005.047.004.047.004.047.003.047.003.047.002.047.002.047.001.046.001h.092l.046-.001.046-.001.046-.002.046-.002.046-.003.046-.003.046-.003.046-.004.046-.004.045-.005.045-.005.045-.006.045-.006.045-.006.045-.007.045-.007.044-.008.044-.008.044-.009.044-.009.044-.009.044-.01.044-.01.043-.011.043-.011.043-.012.043-.012.043-.012.042-.013.042-.013.042-.014.042-.014.041-.014.041-.015.041-.015.041-.015.041-.016.04-.016.04-.017.04-.017.04-.017.039-.018.039-.018.039-.018.038-.019.038-.019.038-.02.038-.02.038-.02.037-.02.037-.021.037-.021.036-.021.036-.022.036-.022.036-.023.035-.023.035-.023.035-.023.034-.024.034-.024.034-.024.033-.025.033-.025.033-.025.032-.026.032-.026.032-.026.031-.026.031-.027.031-.027.03-.027.03-.027.03-.027.029-.028.029-.028.029-.028.028-.029.028-.029.028-.029.027-.029.027-.029.026-.029.026-.03.026-.03.025-.03.025-.031.025-.03.024-.031.024-.031.024-.031.023-.031.023-.031.023-.032.022-.032.022-.032.021-.032.021-.032.02-.032.02-.033.02-.033.02-.033.019-.033.019-.033.018-.033.018-.034.018-.033.017-.034.017-.034.016-.034.016-.034.016-.034.015-.034.015-.034.015-.034.014-.034.014-.035.013-.034.013-.035.012-.034.012-.035.012-.035.011-.035.011-.035.011-.035.01-.035.01-.035.01-.035.009-.035.009-.035.008-.035.008-.035.008-.035.007-.035.007-.035.006-.035.006-.035.006-.035.005-.035.005-.035.005-.035.004-.035.004-.035.003-.035.003-.035.003-.035.002-.035.002-.035.002-.035.001-.035.001-.035V17.797l-.001-.034-.001-.034-.001-.034-.002-.034-.002-.034-.002-.034-.003-.034-.003-.034-.003-.034-.004-.033-.004-.034-.005-.033-.005-.033-.005-.033-.006-.033-.006-.033-.006-.032-.006-.032-.007-.032-.007-.032-.007-.032-.008-.032-.008-.032-.009-.032-.009-.031-.009-.032-.009-.031-.01-.031-.01-.031-.01-.031-.011-.03-.011-.03-.011-.03-.012-.03-.012-.03-.012-.03-.012-.029-.013-.029-.013-.029-.013-.029-.013-.029-.014-.028-.014-.028-.014-.028-.015-.028-.015-.027-.015-.027-.015-.027-.016-.027-.016-.027-.016-.026-.016-.026-.017-.026-.017-.026-.017-.026-.017-.025-.017-.025-.018-.025-.018-.025-.018-.024-.018-.024-.018-.024-.019-.024-.019-.023-.019-.023-.019-.023-.02-.023-.02-.022-.02-.022-.02-.022-.02-.022-.02-.021-.021-.021-.021-.021-.021-.02-.021-.02-.021-.02-.022-.02-.021-.02-.022-.019-.022-.019-.022-.019-.022-.018-.022-.018-.022-.018-.023-.018-.023-.017-.023-.017-.023-.017-.023-.017-.023-.016-.023-.016-.023-.016-.023-.015-.024-.015-.024-.015-.024-.015-.024-.014-.024-.014-.024-.014-.024-.013-.024-.013-.024-.013-.024-.013-.024-.012-.025-.012-.024-.012-.025-.011-.025-.011-.025-.011-.025-.011-.025-.01-.025-.01-.025-.01-.025-.009-.025-.009-.025-.009-.025-.009-.025-.008-.025-.008-.025-.008-.025-.008-.025-.007-.025-.007-.025-.007-.025-.006-.025-.006-.025-.006-.025-.006-.025-.005-.025-.005-.025-.005-.025-.005-.025-.004-.025-.004-.05-.007-.025-.003-.025-.003-.025-.003-.025-.002-.025-.002-.025-.002-.024-.002-.025-.001-.024-.001-.024-.001-.024-.001h-.096l-.024.001-.024.001-.024.001-.024.001-.023.002-.024.002-.023.002-.023.002-.023.002-.023.003-.023.003-.023.003-.023.004-.023.004-.023.004-.022.004-.022.004-.022.005-.022.005-.022.005z"/>
    </symbol>
    <symbol id="venue" viewBox="0 0 57 32">
      <path d="M37.796 32h12.918l-32-32H5.796l32 32zM25.351 0l30.847 30.847V0H47.85v9.739L38.111 0h-12.76zM.389 1.071V32h8.348v-9.739L18.476 32h12.842L.389 1.071z"/>
    </symbol>
    <symbol id="waves" viewBox="0 0 22 32">
      <path d="M10.166 19.982v8.121a1.175 1.175 0 0 1-2.348 0v-8.11c.327.239.719.372 1.123.382.441.012.873-.126 1.224-.393zm9.996-2.348a1.12 1.12 0 0 0-1.123 1.123v1.415a1.175 1.175 0 0 0 2.348 0v-1.359a1.119 1.119 0 0 0-.749-1.121 1.126 1.126 0 0 0-.475-.059zM5.269 23.059a2.02 2.02 0 0 1-1.123-.382v8.143a1.18 1.18 0 1 0 2.358 0v-8.087c-.367.237-.8.351-1.236.326zm11.232-7.862a1.117 1.117 0 0 0-.831.308 1.13 1.13 0 0 0-.349.815v6.256a1.18 1.18 0 1 0 2.358 0v-6.178a1.118 1.118 0 0 0-.757-1.124 1.126 1.126 0 0 0-.478-.055l.056-.023zm-3.729 2.404a2.052 2.052 0 0 1-1.179-.382v8.166a1.18 1.18 0 1 0 2.358 0v-8.154a1.988 1.988 0 0 1-1.236.393l.056-.022zM2.719 23.857V1.045A1.053 1.053 0 0 0 1.663.001h-.247A1.053 1.053 0 0 0 .36 1.045v22.812a1.057 1.057 0 0 0 1.056 1.056h.247a1.057 1.057 0 0 0 1.056-1.056zm2.673-1.662h-.247a1.057 1.057 0 0 1-1.056-1.056V3.763a1.053 1.053 0 0 1 1.056-1.044h.247a1.053 1.053 0 0 1 1.056 1.044v17.398a1.057 1.057 0 0 1-1.056 1.056v-.022zm3.718-2.674h-.258a1.045 1.045 0 0 1-1.045-1.045V6.458a1.05 1.05 0 0 1 .302-.746 1.046 1.046 0 0 1 .742-.31h.258a1.053 1.053 0 0 1 1.044 1.056v12.018a1.045 1.045 0 0 1-1.045 1.045zm3.718-2.752h-.236a1.053 1.053 0 0 1-1.056-1.044v-6.47a1.06 1.06 0 0 1 .635-1.037c.132-.057.276-.087.42-.086h.247a1.057 1.057 0 0 1 1.056 1.056v6.515a1.048 1.048 0 0 1-.305.753 1.06 1.06 0 0 1-.751.313h-.011zm3.729-2.415h-.247a1.057 1.057 0 0 1-1.056-1.056v-1.674a1.057 1.057 0 0 1 1.056-1.044h.247a1.053 1.053 0 0 1 1.056 1.044v1.674a1.053 1.053 0 0 1-1.044 1.056h-.011z"/>
    </symbol>
    <symbol id="Zoomer" viewBox="0 0 33 32">
      <path d="M16.96 32c-8.837 0-16-7.163-16-16s7.163-16 16-16c8.836 0 16 7.163 16 16s-7.163 16-16 16zm4.992-24.547c.243-.863-.595-1.373-1.359-.828L9.915 14.232c-.83.591-.699 1.768.196 1.768h2.812v-.022h5.48l-4.465 1.576-1.968 6.993c-.243.863.595 1.373 1.36.828l10.678-7.607c.829-.591.699-1.768-.196-1.768h-4.264l2.406-8.547z"/>
    </symbol>
  </defs>
</svg>